<?xml version="1.0" encoding="UTF-8" standalone="no"?>
<!-- Created with Inkscape (http://www.inkscape.org/) -->

<svg
   xmlns:dc="http://purl.org/dc/elements/1.1/"
   xmlns:cc="http://creativecommons.org/ns#"
   xmlns:rdf="http://www.w3.org/1999/02/22-rdf-syntax-ns#"
   xmlns:svg="http://www.w3.org/2000/svg"
   xmlns="http://www.w3.org/2000/svg"
   xmlns:xlink="http://www.w3.org/1999/xlink"
   xmlns:sodipodi="http://sodipodi.sourceforge.net/DTD/sodipodi-0.dtd"
   xmlns:inkscape="http://www.inkscape.org/namespaces/inkscape"
   width="48mm"
   height="48mm"
   viewBox="0 0 170.07874 170.07874"
   id="svg2"
   version="1.1"
   inkscape:version="0.91 r13725"
   sodipodi:docname="icon-source.svg"
   inkscape:export-filename="/home/evan/code/tessitura/app/images/ludwig-icon.png"
   inkscape:export-xdpi="1587.5"
   inkscape:export-ydpi="1587.5">
  <title
     id="title4686">Tessitura Logo</title>
  <defs
     id="defs4">
    <linearGradient
       inkscape:collect="always"
       id="linearGradient5601">
      <stop
         style="stop-color:#ffffff;stop-opacity:0.1"
         offset="0"
         id="stop5603" />
      <stop
         id="stop5609"
         offset="0.44279686"
         style="stop-color:#ffffff;stop-opacity:0.05098039;" />
      <stop
         style="stop-color:#ffffff;stop-opacity:0;"
         offset="1"
         id="stop5605" />
    </linearGradient>
    <filter
       style="color-interpolation-filters:sRGB;"
       inkscape:label="Drop Shadow"
       id="filter5484">
      <feFlood
         flood-opacity="0.2"
         flood-color="rgb(0,0,0)"
         result="flood"
         id="feFlood5486" />
      <feComposite
         in="flood"
         in2="SourceGraphic"
         operator="in"
         result="composite1"
         id="feComposite5488" />
      <feGaussianBlur
         in="composite1"
         stdDeviation="4"
         result="blur"
         id="feGaussianBlur5490" />
      <feOffset
         dx="0"
         dy="4"
         result="offset"
         id="feOffset5492" />
      <feComposite
         in="SourceGraphic"
         in2="offset"
         operator="over"
         result="composite2"
         id="feComposite5494" />
    </filter>
    <filter
       style="color-interpolation-filters:sRGB"
       inkscape:label="Drop Shadow"
       id="filter5484-7">
      <feFlood
         flood-opacity="0.2"
         flood-color="rgb(0,0,0)"
         result="flood"
         id="feFlood5486-7" />
      <feComposite
         in="flood"
         in2="SourceGraphic"
         operator="in"
         result="composite1"
         id="feComposite5488-0" />
      <feGaussianBlur
         in="composite1"
         stdDeviation="4"
         result="blur"
         id="feGaussianBlur5490-0" />
      <feOffset
         dx="0"
         dy="4"
         result="offset"
         id="feOffset5492-4" />
      <feComposite
         in="SourceGraphic"
         in2="offset"
         operator="over"
         result="composite2"
         id="feComposite5494-7" />
    </filter>
    <radialGradient
       inkscape:collect="always"
       xlink:href="#linearGradient5601"
       id="radialGradient5607"
       cx="25.000191"
       cy="31.452219"
       fx="25.000191"
       fy="31.452219"
       r="56.999995"
       gradientTransform="matrix(2.4979498,2.6052501,-1.0004101,0.959207,-2.9841051,-89.222199)"
       gradientUnits="userSpaceOnUse" />
  </defs>
  <sodipodi:namedview
     id="base"
     pagecolor="#ffffff"
     bordercolor="#666666"
     borderopacity="1.0"
     inkscape:pageopacity="0.0"
     inkscape:pageshadow="2"
     inkscape:zoom="5.6751053"
     inkscape:cx="84.999994"
     inkscape:cy="84.999998"
     inkscape:document-units="px"
     inkscape:current-layer="layer12"
     showgrid="false"
     objecttolerance="10000"
     inkscape:snap-page="false"
     showguides="false"
     inkscape:guide-bbox="true"
     guidetolerance="10000"
     inkscape:window-width="2160"
     inkscape:window-height="1342"
     inkscape:window-x="0"
     inkscape:window-y="46"
     inkscape:window-maximized="1">
    <inkscape:grid
       type="xygrid"
       id="grid4684" />
    <sodipodi:guide
       position="85.000002,95.000003"
       orientation="1,0"
       id="guide4756" />
    <sodipodi:guide
       position="40.000001,85.000002"
       orientation="0,1"
       id="guide4758" />
    <sodipodi:guide
       position="142,166"
       orientation="1,0"
       id="guide4767" />
    <sodipodi:guide
       position="114,164"
       orientation="0,1"
       id="guide4769" />
    <sodipodi:guide
       position="28.000001,147"
       orientation="1,0"
       id="guide4771" />
    <sodipodi:guide
       position="35.000001,6.0000002"
       orientation="0,1"
       id="guide4773" />
    <sodipodi:guide
       position="120,149"
       orientation="0,1"
       id="guide4777" />
    <sodipodi:guide
       position="127,151"
       orientation="1,0"
       id="guide4779" />
  </sodipodi:namedview>
  <metadata
     id="metadata7">
    <rdf:RDF>
      <cc:Work
         rdf:about="">
        <dc:format>image/svg+xml</dc:format>
        <dc:type
           rdf:resource="http://purl.org/dc/dcmitype/StillImage" />
        <dc:title>Tessitura Logo</dc:title>
        <dc:creator>
          <cc:Agent>
            <dc:title>Evan Pavlica</dc:title>
          </cc:Agent>
        </dc:creator>
      </cc:Work>
    </rdf:RDF>
  </metadata>
  <g
     inkscape:groupmode="layer"
     id="layer2"
     inkscape:label="Background">
    <path
       style="color:#000000;clip-rule:nonzero;display:inline;overflow:visible;visibility:visible;opacity:1;isolation:auto;mix-blend-mode:normal;color-interpolation:sRGB;color-interpolation-filters:linearRGB;solid-color:#000000;solid-opacity:1;fill:#2f1e2e;fill-opacity:1;fill-rule:nonzero;stroke:none;stroke-width:0.89999998;stroke-linecap:round;stroke-linejoin:round;stroke-miterlimit:10;stroke-dasharray:none;stroke-dashoffset:0;stroke-opacity:1;color-rendering:auto;image-rendering:auto;shape-rendering:auto;text-rendering:auto;enable-background:accumulate;filter:url(#filter5484)"
       d="m 40.5,6.0787396 86.53124,0 C 142,21.078735 127,6.0787354 141.99999,21.04749 l 0,130.53125 c 0,6.925 -5.575,12.5 -12.5,12.5 l -88.99999,0 c -6.925,0 -12.5,-5.575 -12.5,-12.5 l 0,-133 c 0,-6.925 5.575,-12.5000004 12.5,-12.5000004 z"
       id="rect4775"
       inkscape:connector-curvature="0"
       sodipodi:nodetypes="sccssssss" />
    <path
       style="fill:none;fill-rule:evenodd;stroke:#ffffff;stroke-width:1;stroke-linecap:round;stroke-linejoin:miter;stroke-miterlimit:3.0999999;stroke-dasharray:none;stroke-opacity:1;opacity:0.2"
       d="m 28.101563,18.070922 c 0.09375,-5.968749 5.370353,-12.0005951 12,-11.9999991 L 127,6.0787354"
       id="path5452"
       inkscape:connector-curvature="0"
       sodipodi:nodetypes="csc" />
    <path
       style="color:#000000;clip-rule:nonzero;display:inline;overflow:visible;visibility:visible;opacity:0.2;isolation:auto;mix-blend-mode:normal;color-interpolation:sRGB;color-interpolation-filters:linearRGB;solid-color:#000000;solid-opacity:1;fill:none;fill-opacity:1;fill-rule:nonzero;stroke:#0a060a;stroke-width:0.89999998;stroke-linecap:round;stroke-linejoin:round;stroke-miterlimit:10;stroke-dasharray:none;stroke-dashoffset:0;stroke-opacity:1;color-rendering:auto;image-rendering:auto;shape-rendering:auto;text-rendering:auto;enable-background:accumulate"
       d="m 141.60817,151.22149 c 0,6.925 -5.41875,12.37256 -12.34375,12.375 l -88.843739,0.0312 c -6.925,0.002 -12.03125,-5.5125 -12.03125,-12.4375"
       id="rect4775-2"
       inkscape:connector-curvature="0"
       sodipodi:nodetypes="cssc" />
  </g>
  <g
     inkscape:groupmode="layer"
     id="layer3"
     inkscape:label="Top Right Corner"
     style="display:inline">
    <path
       style="fill:#f99b15;fill-opacity:1;fill-rule:evenodd;stroke:none;stroke-width:1px;stroke-linecap:butt;stroke-linejoin:miter;stroke-opacity:1"
       d="m 127,6.0787398 15,14.9999992 -15,0 z"
       id="path4781"
       inkscape:connector-curvature="0" />
    <path
       style="fill:#281827;fill-opacity:1;fill-rule:evenodd;stroke:none;stroke-width:1px;stroke-linecap:butt;stroke-linejoin:miter;stroke-opacity:1"
       d="m 127,21.078739 14.91161,0.161162 -14.90393,0.845418 z"
       id="path5312"
       inkscape:connector-curvature="0"
       sodipodi:nodetypes="cccc" />
    <path
       style="fill:none;fill-rule:evenodd;stroke:#ffffff;stroke-width:0.2;stroke-linecap:butt;stroke-linejoin:miter;stroke-miterlimit:4;stroke-dasharray:none;stroke-opacity:0.94117647"
       d="M 142,21.078735 130.49608,9.5748149 127,6.0787398"
       id="path5314"
       inkscape:connector-curvature="0"
       sodipodi:nodetypes="ccc" />
  </g>
  <g
     inkscape:groupmode="layer"
     id="layer10"
     inkscape:label="Drop Shadow" />
  <g
     inkscape:groupmode="layer"
     id="layer5"
     inkscape:label="Staff Lines">
    <g
       id="g4942">
      <path
         inkscape:connector-curvature="0"
         id="path4893-19"
         d="m 28,110.07874 114,0"
         style="fill:none;fill-rule:evenodd;stroke:#ffffff;stroke-width:0.5;stroke-linecap:butt;stroke-linejoin:miter;stroke-opacity:1;stroke-miterlimit:4;stroke-dasharray:none" />
      <path
         inkscape:connector-curvature="0"
         id="path4893-5"
         d="m 28,115.07874 114,0"
         style="fill:none;fill-rule:evenodd;stroke:#ffffff;stroke-width:0.5;stroke-linecap:butt;stroke-linejoin:miter;stroke-opacity:1;stroke-miterlimit:4;stroke-dasharray:none" />
      <path
         inkscape:connector-curvature="0"
         id="path4893-53"
         d="m 28,120.07874 114,0"
         style="fill:none;fill-rule:evenodd;stroke:#ffffff;stroke-width:0.5;stroke-linecap:butt;stroke-linejoin:miter;stroke-opacity:1;stroke-miterlimit:4;stroke-dasharray:none" />
      <path
         inkscape:connector-curvature="0"
         id="path4893"
         d="m 28,100.07874 114,0"
         style="fill:none;fill-rule:evenodd;stroke:#ffffff;stroke-width:0.5;stroke-linecap:butt;stroke-linejoin:miter;stroke-opacity:1;stroke-miterlimit:4;stroke-dasharray:none" />
      <path
         inkscape:connector-curvature="0"
         id="path4893-1"
         d="m 28,105.07874 114,0"
         style="fill:none;fill-rule:evenodd;stroke:#ffffff;stroke-width:0.5;stroke-linecap:butt;stroke-linejoin:miter;stroke-opacity:1;stroke-miterlimit:4;stroke-dasharray:none" />
    </g>
  </g>
  <g
     inkscape:groupmode="layer"
     id="layer7"
     inkscape:label="Eigths">
    <g
       id="g5124"
       transform="matrix(4.1544884,0,0,4.1544884,71.35337,100.05788)"
       style="fill:#fec418;fill-opacity:1">
      <text
         style="font-size:2.19950008px;font-family:'Century Schoolbook L';text-anchor:start;fill:#fec418;fill-opacity:1"
         id="text4"
         font-size="2.1995"
         transform="translate(-44.8172,-2)">
        <tspan
           id="tspan6"
           style="fill:#fec418;fill-opacity:1" />
      </text>
      <path
         style="fill:#fec418;fill-opacity:1"
         inkscape:connector-curvature="0"
         id="path70"
         d="m 220,138 c 56,0 109,-29 109,-91 0,-72 -56,-121 -103,-149 -36,-21 -76,-36 -117,-36 -56,0 -109,29 -109,91 0,72 56,121 103,149 36,21 76,36 117,36 z"
         transform="matrix(0.004,0,0,-0.004,0,3.55)" />
      <rect
         style="fill:#fec418;fill-opacity:1"
         id="rect106"
         ry="0.039999999"
         height="3.1222"
         width="0.13"
         y="-2.8099999"
         x="-0.064999998"
         transform="translate(8.253,3.05)" />
      <path
         style="fill:#fec418;fill-opacity:1"
         inkscape:connector-curvature="0"
         id="path108"
         d="m 220,138 c 56,0 109,-29 109,-91 0,-72 -56,-121 -103,-149 -36,-21 -76,-36 -117,-36 -56,0 -109,29 -109,91 0,72 56,121 103,149 36,21 76,36 117,36 z"
         transform="matrix(0.004,0,0,-0.004,7.0018,3.55)" />
      <rect
         style="fill:#fec418;fill-opacity:1"
         id="rect110"
         ry="0.039999999"
         height="3.1222"
         width="0.13"
         y="-2.8099999"
         x="-0.064999998"
         transform="translate(4.7521,3.05)" />
      <path
         style="fill:#fec418;fill-opacity:1"
         inkscape:connector-curvature="0"
         id="path112"
         d="m 220,138 c 56,0 109,-29 109,-91 0,-72 -56,-121 -103,-149 -36,-21 -76,-36 -117,-36 -56,0 -109,29 -109,91 0,72 56,121 103,149 36,21 76,36 117,36 z"
         transform="matrix(0.004,0,0,-0.004,3.5009,3.55)" />
      <rect
         style="fill:#fec418;fill-opacity:1"
         id="rect114"
         ry="0.039999999"
         height="3.1222"
         width="0.13"
         y="-2.8099999"
         x="-0.064999998"
         transform="translate(1.2512,3.05)" />
      <polygon
         style="fill:#fec418;fill-opacity:1;stroke:none;stroke-width:0.08;stroke-linecap:round;stroke-linejoin:round"
         id="polygon116"
         points="0.04,0.2 0.04,-0.2 7.0918,-0.2 7.0918,0.2 "
         transform="matrix(1.0113137,0,0,1,1.1453999,0.10084326)" />
    </g>
  </g>
  <g
     inkscape:groupmode="layer"
     id="layer9"
     inkscape:label="Fermata">
    <g
       id="layer1-7"
       transform="matrix(0.02125194,0,0,0.02125464,115.73177,89.065233)"
       style="fill:#fec418;fill-opacity:1">
      <path
         id="path1884"
         style="opacity:1;fill:#fec418;fill-opacity:1;fill-rule:evenodd;stroke:none;stroke-width:0.559017;stroke-linecap:round;stroke-linejoin:bevel;stroke-miterlimit:4;stroke-dasharray:none;stroke-opacity:1"
         transform="matrix(2.375,0,0,1.9,-391.25,-445.376)"
         d="m 290,457.36218 c 0,13.80712 -8.95431,25 -20,25 -11.04569,0 -20,-11.19288 -20,-25 0,-13.80712 8.95431,-25 20,-25 11.04569,0 20,11.19288 20,25 l 0,0 z"
         inkscape:connector-curvature="0" />
      <path
         id="path2772"
         style="fill:#fec418;fill-opacity:1"
         d="m 15,467.36218 c 20,-135 115,-255 235,-255 120,0 215,120 235,255 1,5 -24,5 -25,0 -25,-95 -90,-185 -210,-185 -120,0 -185,90 -210,185 -1,5 -26,5 -25,0 z"
         inkscape:connector-curvature="0" />
    </g>
  </g>
  <g
     inkscape:groupmode="layer"
     id="layer8"
     inkscape:label="Half">
    <g
       id="g10997"
       transform="matrix(-0.38802748,0,0,-0.38802748,212.50453,206.33523)"
       style="fill:#fec418;fill-opacity:1">
      <path
         id="path10999"
         style="opacity:1;fill:#fec418;fill-opacity:1;fill-rule:evenodd;stroke:none;stroke-width:0.2;stroke-miterlimit:4;stroke-dasharray:none;stroke-dashoffset:0;stroke-opacity:1"
         d="m 237.68484,218.18353 c -3.39584,1.81997 -5.20528,5.11455 -4.09222,7.59296 1.18726,2.64364 5.26701,3.38972 9.10658,1.66537 3.83956,-1.72436 5.99216,-5.2694 4.8049,-7.91303 -1.18727,-2.64364 -5.26701,-3.38972 -9.10658,-1.66537 -0.23997,0.10777 -0.48628,0.19874 -0.71268,0.32007 z m 1.38023,2.7974 c 0.24123,-0.12433 0.5709,-0.24651 0.82661,-0.36135 3.27307,-1.46994 4.99629,-1.69567 5.61819,-0.31091 0.6219,1.38476 -2.74623,3.51235 -4.14795,4.0611 -1.72557,0.67553 -4.48645,1.39916 -4.99792,0.22386 -0.39009,-0.89638 -0.14546,-2.14563 2.70107,-3.6127 z"
         inkscape:connector-curvature="0"
         sodipodi:nodetypes="csssscssssss" />
      <path
         id="path11001"
         style="fill:#fec418;fill-opacity:1;fill-rule:evenodd;stroke:#fec418;stroke-width:1.39999998;stroke-linecap:butt;stroke-linejoin:miter;stroke-miterlimit:4;stroke-dasharray:none;stroke-opacity:1"
         d="m 233.94297,224.51692 0,33.58757"
         inkscape:connector-curvature="0" />
    </g>
  </g>
  <g
     inkscape:groupmode="layer"
     id="layer6"
     inkscape:label="Clef">
    <g
       id="g5038"
       transform="matrix(0.04185928,0,0,0.04185928,33.29407,85.463851)"
       style="fill:#fec418;fill-opacity:1">
      <path
         id="path9"
         style="fill:#fec418;fill-opacity:1;fill-rule:evenodd;stroke:#131516;stroke-width:0.60229105"
         d="m 201.68015,653.12212 c -12.46702,2.55674 -24.02073,9.39743 -35.04838,20.29436 -11.04143,11.09696 -16.95189,23.75394 -17.9181,37.75706 -0.60732,8.80196 1.7105,19.01173 6.79435,30.01535 5.07003,11.20365 13.35508,19.61418 24.44026,25.40398 3.75488,1.06306 5.42162,3.18804 5.22838,5.98866 -0.069,1.00023 -1.54175,1.9036 -5.00598,2.46856 -17.93083,-5.86014 -32.2943,-16.70005 -42.91747,-32.10582 -10.60938,-15.6058 -15.46587,-32.82464 -14.54185,-52.05658 2.02329,-20.56307 9.56482,-39.33841 22.61078,-56.12599 13.26031,-16.97377 29.57075,-28.51116 48.93136,-34.61219 L 185.31689,528.179 c -32.64851,23.47488 -59.55063,48.35125 -80.93452,75.01534 -21.370091,26.46407 -33.480859,55.97896 -36.53285,88.53087 -0.606549,14.63092 1.421406,29.04162 6.097676,43.03207 4.662466,14.19049 12.228979,27.17438 22.671944,39.35177 21.10025,24.16853 49.7639,38.00511 85.57611,41.68209 12.28758,0.0438 25.47391,-1.25727 39.75952,-3.88952 l -20.27462,-158.7795 z m 14.57623,-1.00421 20.66841,155.99269 c 31.73752,-10.27194 49.04177,-36.21255 51.88517,-77.42172 -0.85238,-13.92759 -4.00722,-26.60708 -10.06611,-38.07998 -5.84456,-11.65908 -14.06059,-21.06985 -24.84863,-28.2461 -10.78802,-7.17627 -23.20062,-11.24867 -37.63884,-12.24489 z M 189.50255,441.23515 c 6.89357,-3.54429 14.99684,-10.02005 23.89496,-19.25494 8.88429,-9.03486 17.69228,-19.88392 26.19583,-32.16099 8.71789,-12.46328 15.84533,-25.23729 21.38234,-38.32202 5.52319,-12.8847 8.59862,-25.33531 9.39918,-36.93789 0.34507,-5.00111 0.28908,-10.0299 -0.4099,-14.50006 -0.30523,-7.25695 -2.12459,-13.01038 -5.67241,-17.07413 -3.56164,-3.8637 -8.23635,-6.19621 -14.25226,-6.61131 -12.03186,-0.83017 -23.37123,5.8243 -34.01811,19.96344 -8.30303,12.29091 -15.5685,27.06536 -21.16723,43.96478 -5.81305,17.08563 -9.607,34.1096 -11.20891,51.48579 -0.36382,19.87359 1.72664,36.29858 5.85651,49.44733 z m -13.434,10.73089 c -6.78782,-33.02985 -9.52362,-66.38311 -8.2074,-100.05976 1.69125,-21.59096 5.29118,-41.64326 10.7998,-60.15689 5.30808,-18.52745 12.24151,-34.3298 20.82787,-47.80712 8.38585,-13.49117 17.74021,-23.49856 27.86261,-30.03603 9.0645,-5.80645 15.51561,-8.77828 18.92464,-8.54306 2.60689,0.17987 4.74372,1.3323 6.6248,3.27107 1.88108,1.93877 4.28094,5.1193 7.21338,9.34157 21.53047,35.45406 30.74654,77.09332 27.46145,124.70391 -1.55972,22.60503 -6.08599,44.40238 -13.62024,65.99218 -7.31989,21.40359 -17.37822,41.61325 -30.14736,60.22889 -12.98346,18.80186 -27.7928,34.86477 -44.64234,48.37494 l 10.80467,79.93828 c 8.89236,-0.39142 14.9635,-0.7765 18.37252,-0.54129 15.24035,1.05157 28.65559,5.19317 40.84733,12.46628 12.19175,7.27313 22.4269,16.6222 30.49109,28.23345 8.078,11.41121 14.04027,24.28441 17.88681,38.61959 3.64601,14.32135 5.2453,29.10448 4.19628,44.30785 -1.62873,23.60526 -9.3359,44.78113 -23.10769,63.32759 -13.77178,18.54646 -33.40115,31.46283 -59.10243,38.93534 0.92791,9.91286 2.75533,24.30974 5.71042,42.80437 2.74074,18.6808 4.7411,33.4916 6.00106,44.4323 1.25995,10.9408 1.34432,21.3985 0.64037,31.6008 -1.09042,15.8036 -5.8667,29.5437 -14.34266,41.4207 -8.67647,11.8631 -19.76661,20.7457 -33.47093,26.634 -13.50381,5.9022 -28.17667,8.3067 -43.81808,7.2274 -22.05838,-1.522 -40.88144,-9.0516 -56.483,-22.3889 -15.587742,-13.5373 -23.265458,-30.7498 -22.604476,-52.01 1.250321,-9.3605 4.063489,-18.0102 8.653824,-26.1354 4.590337,-8.1251 10.473962,-14.553 17.851422,-19.2699 7.19072,-4.9308 15.60573,-7.1641 25.07208,-7.1139 7.8207,0.5396 15.08851,3.252 21.81722,7.9373 6.51438,4.8714 11.72897,11.06 15.42941,18.7523 3.4999,7.6784 5.13982,16.0324 4.5325,24.8343 -0.81437,11.8027 -5.51512,21.5281 -14.10228,29.1765 -8.58714,7.6483 -19.10408,11.1437 -31.33645,10.2996 l -4.61221,-0.3182 c 6.99253,12.5423 19.3986,19.6292 37.24585,20.8606 9.02388,0.6226 18.38633,-0.7413 27.8592,-3.7056 9.68719,-3.1506 17.85297,-7.6121 24.91217,-13.5569 7.05922,-5.9449 11.94019,-12.442 14.24186,-19.519 3.97495,-7.9666 6.36596,-19.2584 7.34596,-33.4616 0.66254,-9.6021 0.32242,-19.2734 -0.81982,-29.0001 -1.15604,-9.5266 -3.09389,-22.32311 -5.82735,-38.1895 -2.74726,-15.6663 -4.72652,-27.86271 -5.76484,-36.1752 -12.23891,2.17048 -24.78223,2.91299 -37.81674,2.01363 -21.85784,-1.50817 -42.20886,-7.33432 -61.03921,-17.67845 -18.83036,-10.34413 -35.019697,-23.92299 -48.754754,-40.95044 -13.534512,-17.01362 -23.722509,-35.8063 -30.53638,-56.77814 -6.627142,-20.75796 -9.375182,-42.25323 -8.057404,-64.27196 2.210017,-20.3492 7.37278,-39.69067 15.861757,-57.59665 8.502775,-18.10605 18.941841,-35.07348 31.503932,-50.68845 12.562089,-15.61497 25.428619,-29.80196 38.585789,-42.36091 13.3439,-12.34509 30.76014,-28.22812 52.63597,-47.42139 z"
         inkscape:connector-curvature="0" />
      <g
         id="g4281"
         style="fill:#fec418;fill-opacity:1"
         transform="matrix(23.877746,0,0,23.877746,344.86616,349.10588)">
        <g
           id="g2111"
           style="display:inline;fill:#fec418;fill-opacity:1"
           transform="translate(-94.947,-433.75)">
          <path
             id="path2117"
             style="fill:#fec418;fill-opacity:1"
             d="m 97.359,444.68428 c -0.626565,0.78306 -1.154,1.23125 -1.849,1.75825 l 0,-2.59453 c 0.158,-0.399 0.391,-0.722 0.7,-0.97 0.308,-0.247 0.62,-0.371 0.936,-0.371 1.475857,0.21415 0.958999,1.46862 0.213,2.17728 z m -1.849,-2.11528 0,-7.27167 -0.563,0 0,11.6172 c 0,0.352 0.096,0.528 0.288,0.528 0.111,0 0.248913,-0.093 0.455,-0.216 1.401908,-0.86339 2.302494,-1.56233 3.20183,-2.79555 0.27803,-0.38125 0.474631,-1.24586 0.07214,-1.84968 -0.251,-0.37656 -0.729309,-0.77208 -1.342329,-0.889 -0.793549,-0.15135 -1.477881,0.24375 -2.111641,0.8767 z"
             inkscape:connector-curvature="0" />
        </g>
      </g>
      <use
         xlink:href="#g4281"
         height="1200"
         width="1200"
         y="0"
         x="0"
         id="use5266"
         transform="translate(100,-186)"
         style="fill:#fec418;fill-opacity:1" />
      <use
         xlink:href="#g4281"
         height="1200"
         width="1200"
         y="0"
         x="0"
         id="use5324"
         transform="translate(200,56)"
         style="fill:#fec418;fill-opacity:1" />
    </g>
  </g>
  <g
     inkscape:groupmode="layer"
     id="layer4"
     inkscape:label="Ludwig">
    <g
       id="g4881"
       transform="matrix(0.74731796,0,0,0.74731796,33.075835,38.722843)"
       style="fill:#ffffff;fill-opacity:1">
      <path
         id="path4857"
         d="M 52.502,17.869 C 49.657,22.482 45.479,26.448 41.627,30.189 32.152,39.391 21.408,47.53 10.952,55.593 9.778,56.498 5.563,60.441 3.901,59.567 -1.611,56.669 14.066,49.912 15.684,49.199 22,46.416 27.931,43.11 33.855,39.568 48.093,31.056 62.898,22.14 75.327,11.069 76.281,10.22 81.752,5.356 78.277,4.351 74.231,3.181 67.844,9.188 65.123,11.289 57.559,17.131 47.251,25.39 44.744,35.113 c -1.189,4.611 0.467,8.289 5.533,7.665 7.064,-0.871 13.654,-7.467 18.446,-12.147 -0.852,-0.143 -1.703,-0.286 -2.554,-0.428 -1.616,3.14 -4.216,7.499 -3.749,11.152 0.151,1.185 2.461,0.326 2.815,-0.291 0.909,-1.584 4.362,-2.851 5.896,-3.97 2.157,-1.574 3.586,-3.871 5.589,-5.546 -0.882,-0.062 -1.763,-0.123 -2.645,-0.185 -0.436,2.695 -5.49,8.371 0.629,8.2 1.548,-0.043 2.314,-1.914 0.328,-1.858 -1.751,0.049 1.844,-5.926 1.959,-6.635 0.222,-1.375 -2.177,-0.576 -2.645,-0.185 -2.691,2.25 -4.459,5.728 -8.041,6.892 -1.702,0.553 -2.913,1.541 -3.804,3.092 0.938,-0.097 1.877,-0.194 2.815,-0.291 -0.422,-3.303 2.112,-7.32 3.584,-10.181 0.731,-1.42 -1.996,-0.973 -2.554,-0.428 -2.47,2.413 -14.541,14.638 -18.494,10.155 -2.713,-3.078 1.497,-9.506 3.281,-12.042 5.109,-7.26 12.412,-13.419 19.62,-18.497 1.326,-0.934 2.697,-1.817 4.123,-2.589 0.946,-0.513 1.651,-1.178 1.532,-0.55 -0.348,1.82 -3.215,3.76 -4.493,4.872 -6.3,5.481 -13.388,10.145 -20.323,14.768 -7.504,5.003 -15.153,9.801 -22.93,14.368 -7.4,4.344 -15.332,7.334 -22.844,11.426 -2.414,1.314 -5.463,3.157 -5.805,6.155 -0.187,1.644 1.249,3.222 2.784,3.476 5.097,0.844 11.152,-5.688 14.59,-8.443 9.668,-7.752 19.598,-15.261 28.42,-23.99 3.37,-3.334 6.917,-6.947 9.425,-11.014 0.79,-1.274 -2.153,-1.13 -2.73,-0.195 l 0,0 z"
         inkscape:connector-curvature="0"
         style="fill:#ffffff;fill-opacity:1" />
      <path
         id="path4859"
         d="m 81.854,33.275 c -1.122,1.354 -4.404,4.937 -3.681,6.948 0.658,1.833 3.006,1.418 4.366,0.57 4.141,-2.58 7.303,-6.981 10.435,-10.623 4.049,-4.708 9.219,-9.305 11.781,-15.057 0.929,-2.086 -0.272,-3.293 -2.329,-3.254 -3.371,0.064 -6.951,2.43 -9.392,4.534 -2.413,2.08 -3.409,6.557 -1.538,9.299 1.553,2.277 3.495,3.312 3.029,6.418 -0.468,3.117 -4.429,8.757 -8.154,7.627 -0.641,-0.195 -2.81,0.365 -2.236,1.342 0.457,0.778 3.311,0.802 3.975,0.821 3.048,0.086 5.806,-0.397 8.627,-1.545 4.211,-1.713 9.928,-6.124 11.378,-10.652 0.329,-1.03 -2.45,-0.533 -2.796,0.161 -0.646,1.3 -0.858,3.036 -0.563,4.446 0.188,0.889 1.986,1.315 2.597,1.603 0.829,0.39 -0.978,1.25 -1.624,2.155 -2.201,3.082 5.412,5.677 6.921,0.714 0.306,-1.007 -2.603,-0.597 -2.896,0.37 -0.574,-1.273 -0.354,-2.118 0.664,-2.534 0.199,-0.132 0.705,-0.482 0.553,-0.807 -1.05,-2.235 -4.632,-2.531 -2.956,-5.898 -0.932,0.054 -1.864,0.107 -2.796,0.161 -0.836,2.613 -3.365,4.654 -5.366,6.37 -2.33,1.997 -4.996,3.307 -8.087,3.805 0.629,-0.101 -4.729,0.057 -4.937,-0.296 -0.746,0.447 -1.491,0.895 -2.236,1.342 3.908,1.186 7.839,-1.686 10.273,-4.439 1.878,-2.124 3.253,-5.447 2.44,-8.24 -0.306,-1.049 -1.363,-1.942 -2.078,-2.694 -1.626,-1.71 -1.865,-3.758 -1.569,-6.014 0.38,-2.892 3.477,-4.531 5.779,-5.69 3.229,-1.625 2.783,0.723 1.694,2.717 -2.396,4.389 -6.432,8.047 -9.666,11.806 -3.092,3.593 -6.079,7.384 -9.673,10.495 -0.989,0.856 0.774,-3.232 1.129,-3.764 0.497,-0.745 1.056,-1.458 1.627,-2.147 0.811,-0.979 -2.106,-0.76 -2.695,-0.05 l 0,0 z"
         inkscape:connector-curvature="0"
         style="fill:#ffffff;fill-opacity:1" />
      <path
         id="path4861"
         d="m 116.436,34.208 c -0.618,1.351 -3.046,7.194 -0.084,7.679 2.324,0.381 4.408,-1.1 6.147,-2.456 1.354,-1.057 15.543,-16.043 12.735,-16.821 -1.979,-0.548 -3.5,1.174 -4.394,2.641 -0.94,1.542 -1.311,3.366 -0.977,5.125 0.409,2.152 3.175,2.982 3.554,5.479 0.866,5.694 -11.049,13.484 -14.895,16.287 -1.305,0.951 -9.041,5.882 -7.13,1.175 0.73,-1.798 3.031,-3.256 4.594,-4.272 1.241,-0.807 -1.683,-0.519 -2.238,-0.157 -2.141,1.392 -4.502,3.14 -5.487,5.568 -0.997,2.455 2.414,2.573 3.815,2.333 3.573,-0.612 6.911,-3.196 9.743,-5.26 4.337,-3.161 9.33,-6.958 12.437,-11.37 2.517,-3.574 2.707,-6.449 -0.693,-9.366 -2.105,-1.806 -0.469,-5.325 0.846,-7.082 -1.388,1.854 -1.132,-0.777 -1.864,1.281 -0.287,0.807 -0.828,1.552 -1.291,2.263 -2.494,3.832 -5.82,7.26 -9.131,10.386 -0.796,0.752 -1.635,1.456 -2.498,2.13 -1.397,1.09 -1.41,1.043 -1.734,-0.629 -0.32,-1.658 0.729,-3.925 1.41,-5.416 0.252,-0.552 -2.511,-0.29 -2.865,0.482 l 0,0 z"
         inkscape:connector-curvature="0"
         style="fill:#ffffff;fill-opacity:1" />
      <path
         id="path4863"
         d="m 120.318,28.912 c -0.156,-1.027 -0.267,-2.061 -0.351,-3.096 -0.066,-0.833 -0.104,-1.67 -0.068,-2.506 0.014,-0.301 0.05,-0.599 0.097,-0.895 0.233,-1.454 0.496,0.771 -1.615,-0.088 0.646,0.263 1.474,0.07 2.051,-0.276 0.356,-0.214 0.911,-0.845 0.26,-1.109 -0.968,-0.394 -2.187,-0.154 -2.958,0.55 -0.721,0.656 -0.725,1.804 -0.745,2.7 -0.043,1.833 0.156,3.688 0.432,5.498 0.145,0.961 3.058,0.283 2.897,-0.778 l 0,0 z"
         inkscape:connector-curvature="0"
         style="fill:#ffffff;fill-opacity:1" />
      <path
         id="path4865"
         d="m 83.378,22.681 c 0.553,0.261 -0.055,-0.063 -0.185,-0.156 -0.354,-0.255 -0.617,-0.608 -0.855,-0.968 -0.979,-1.482 -0.607,-3.544 -0.089,-5.109 0.52,-1.568 -2.372,-1.473 -2.762,-0.297 -0.988,2.98 -1.077,6.885 2.205,8.434 1.161,0.548 3.346,-1.121 1.686,-1.904 l 0,0 z"
         inkscape:connector-curvature="0"
         style="fill:#ffffff;fill-opacity:1" />
    </g>
  </g>
  <g
     inkscape:groupmode="layer"
     id="layer12"
     inkscape:label="Finish">
    <path
       style="color:#000000;clip-rule:nonzero;display:inline;overflow:visible;visibility:visible;opacity:1;isolation:auto;mix-blend-mode:normal;color-interpolation:sRGB;color-interpolation-filters:linearRGB;solid-color:#000000;solid-opacity:1;fill:url(#radialGradient5607);fill-opacity:1;fill-rule:nonzero;stroke:none;stroke-width:0.89999998;stroke-linecap:round;stroke-linejoin:round;stroke-miterlimit:10;stroke-dasharray:none;stroke-dashoffset:0;stroke-opacity:1;color-rendering:auto;image-rendering:auto;shape-rendering:auto;text-rendering:auto;enable-background:accumulate"
       d="m 40.70637,6.2259317 86.53124,0 c 14.96876,14.9999963 -0.0312,-4e-6 14.96875,14.9687513 l 0,130.531237 c 0,6.925 -5.575,12.5 -12.5,12.5 l -88.99999,0 c -6.925,0 -12.5,-5.575 -12.5,-12.5 l 0,-132.999987 c 0,-6.925 5.575,-12.5000013 12.5,-12.5000013 z"
       id="rect4775-5"
       inkscape:connector-curvature="0"
       sodipodi:nodetypes="sccssssss" />
  </g>
</svg>
